<svg width="30" height="30" xmlns="http://www.w3.org/2000/svg"><path d="M5.738 1.735c.772 0 1.506.322 2.12.93.411.38.81.785 1.19 1.177.19.203.392.405.588.601l1.728 1.728c1.33 1.33 1.33 3.05 0 4.38-.177.177-.354.36-.531.538-.469.475-.95.968-1.469 1.443.386.854.918 1.696 1.71 2.696 1.632 2.007 3.335 3.557 5.208 4.747.184.114.399.222.627.336.158.082.322.164.487.253l2-1.994c.64-.64 1.386-.975 2.165-.975.784 0 1.525.342 2.139.981l3.474 3.488c.64.633.975 1.386.975 2.17 0 .779-.329 1.539-.956 2.19-.272.285-.55.557-.822.817-.4.386-.779.747-1.108 1.145l-.025.032c-.962 1.044-2.19 1.57-3.652 1.57a8.66 8.66 0 01-.399-.013c-2.17-.14-4.114-.956-5.57-1.646-3.81-1.841-7.145-4.455-9.917-7.765-2.285-2.747-3.817-5.31-4.842-8.076C.44 11.36-.104 9.64.048 7.792A4.63 4.63 0 011.42 4.848l2.152-2.17.013-.013c.633-.608 1.38-.93 2.152-.93zm.012 1.708c-.322 0-.652.159-.962.45L2.63 6.05a2.905 2.905 0 00-.873 1.88c-.095 1.158.12 2.386.709 3.962.955 2.582 2.398 4.987 4.557 7.588 2.613 3.12 5.759 5.583 9.341 7.317 1.31.626 3.057 1.36 4.937 1.48.095.007.196.007.291.007.987 0 1.74-.323 2.38-1.006.392-.462.81-.874 1.221-1.266.273-.266.526-.506.773-.772l.107-.118c.536-.631.5-1.256-.114-1.863l-3.487-3.487-.013-.013c-.196-.215-.519-.462-.911-.462-.399 0-.74.26-.956.475l-2.164 2.164c-.108.108-.437.437-.962.437-.21 0-.412-.05-.627-.158l-.076-.045a8.043 8.043 0 00-.627-.335 8.642 8.642 0 01-.778-.424c-2.032-1.285-3.873-2.962-5.62-5.114-.969-1.228-1.602-2.253-2.05-3.342l-.02-.057c-.114-.36-.215-.892.33-1.437.006-.012.018-.019.03-.031.551-.494 1.058-1 1.59-1.545.183-.177.36-.36.544-.544.67-.67.67-1.291 0-1.962L8.434 5.652c-.203-.209-.405-.411-.601-.614a31.955 31.955 0 00-1.14-1.133l-.019-.019c-.202-.202-.525-.443-.924-.443zM16.396 5.44l.108.01a9.762 9.762 0 015.284 2.741 9.762 9.762 0 012.74 5.285.855.855 0 01-.702.987.85.85 0 01-.987-.696A8.068 8.068 0 0020.573 9.4a8.026 8.026 0 00-4.367-2.266.845.845 0 01-.69-.987.859.859 0 01.988-.696zm.236-5.438l.106.012a16.06 16.06 0 018.702 4.513 16.06 16.06 0 014.513 8.702.839.839 0 01-.696.975c-.05.006-.095.013-.146.013a.85.85 0 01-.842-.71 14.338 14.338 0 00-4.031-7.778c-2.14-2.133-4.83-3.531-7.779-4.031a.859.859 0 01-.702-.988.851.851 0 01.98-.696z" fill="#FFF"/></svg>