<svg width="30" height="30" xmlns="http://www.w3.org/2000/svg"><path d="M25 0a5 5 0 015 5v20a5 5 0 01-5 5H5a5 5 0 01-5-5V5a5 5 0 015-5h20zm0 2H5a3 3 0 00-2.995 2.824L2 5v20a3 3 0 002.824 2.995L5 28h20a3 3 0 002.995-2.824L28 25V5a3 3 0 00-2.824-2.995L25 2zm-2.944 7a1 1 0 011 1c0 1.397-1.587 3.638-3.628 5.223l-.066-.062c.503.459 1.006.947 1.478 1.447.419.444.794.876 1.115 1.293.484.628.838 1.209 1.039 1.751a1 1 0 11-1.876.696c-.119-.322-.375-.743-.747-1.226-.277-.36-.61-.743-.986-1.14-.29-.308-.594-.613-.904-.908l-.467-.436a28.664 28.664 0 00-.331-.298 7.046 7.046 0 01-1.683.618V20a1 1 0 01-1 1c-4.039 0-9-7.482-9-11a1 1 0 112 0c0 2.215 3.243 7.392 5.876 8.697l.124.058V10a1 1 0 01.883-.993L15 9a1 1 0 01.993.883L16 10v4.919c1.047-.308 2.15-1.067 3.179-2.153 1.046-1.106 1.877-2.484 1.877-2.766a1 1 0 011-1z" fill="#FFF"/></svg>