<svg width="30" height="30" xmlns="http://www.w3.org/2000/svg"><path d="M8.388 0a8.41 8.41 0 013.607.816C12.988.606 13.998.5 15 .5c3.873 0 7.515 1.508 10.253 4.247A14.406 14.406 0 0129.5 15a14.51 14.51 0 01-.316 3.005A8.415 8.415 0 0130 21.613C30 26.237 26.238 30 21.613 30a8.413 8.413 0 01-3.608-.816c-.993.21-2.002.316-3.005.316a14.405 14.405 0 01-10.253-4.247A14.406 14.406 0 01.5 15c0-1.005.106-2.014.316-3.005A8.414 8.414 0 010 8.387C0 3.763 3.763 0 8.388 0zm.05 1.858a6.587 6.587 0 00-6.58 6.58c0 1.078.254 2.108.756 3.06a.873.873 0 01.077.606A12.686 12.686 0 002.354 15c0 6.973 5.673 12.646 12.646 12.646.967 0 1.941-.113 2.896-.337a.869.869 0 01.606.077 6.5 6.5 0 003.061.756 6.587 6.587 0 006.58-6.58 6.502 6.502 0 00-.757-3.06.872.872 0 01-.077-.606c.224-.953.337-1.927.337-2.896 0-6.973-5.673-12.646-12.646-12.646-.966 0-1.941.113-2.896.337a.872.872 0 01-.606-.078 6.498 6.498 0 00-3.06-.755zM15 6.348c1.705 0 3.322.458 4.553 1.292 1.344.91 2.088 2.163 2.088 3.523a.979.979 0 01-1.958 0l-.006-.143C19.549 9.546 17.465 8.305 15 8.305c-2.545 0-4.683 1.323-4.683 2.858 0 1.536 2.138 2.858 4.683 2.858l.34.006c1.58.057 3.064.508 4.213 1.286 1.344.912 2.088 2.163 2.088 3.524 0 1.36-.744 2.612-2.088 3.523-1.231.834-2.848 1.293-4.553 1.293s-3.322-.459-4.553-1.293c-1.344-.91-2.088-2.163-2.088-3.523a.979.979 0 011.958 0l.006.143c.128 1.474 2.212 2.715 4.677 2.715 2.544 0 4.683-1.323 4.683-2.858 0-1.536-2.138-2.858-4.683-2.858l-.34-.006c-1.58-.057-3.064-.508-4.213-1.286-1.344-.911-2.088-2.163-2.088-3.524 0-1.36.744-2.612 2.088-3.523 1.231-.834 2.848-1.293 4.553-1.293z" fill="#FFF"/></svg>