<svg width="30" height="24" xmlns="http://www.w3.org/2000/svg"><path d="M26.338.046C28.36.046 30.006 1.71 30 3.748v15.603c0 2.038-1.645 3.695-3.669 3.695H3.67C1.645 23.046 0 21.39 0 19.351V3.742C0 1.704 1.645.046 3.669.046zm-.118 1.8H3.774A1.982 1.982 0 001.8 3.832v15.43a1.98 1.98 0 001.974 1.984h22.452c1.089 0 1.974-.89 1.974-1.985h-.006V3.831a1.982 1.982 0 00-1.974-1.985zm-.304 3.262a1 1 0 01-.118 1.317l-.096.081-6.922 5.082 6.938 5.318a1 1 0 01-1.112 1.658l-.104-.07-7.4-5.673-1.455 1.07a.998.998 0 01-.468.186l-.124.008a.999.999 0 01-.483-.125l-.109-.07-1.422-1.044-7.436 5.65a1 1 0 01-1.32-.096l-.081-.095a1 1 0 01.096-1.32l.095-.081 6.966-5.292-6.953-5.106a1 1 0 011.078-1.68l.106.068 8.032 5.899 1.43 1.051 9.464-6.95a1 1 0 011.398.214z" fill="#FFF"/></svg>