<svg id="Layer_1" data-name="Layer 1" xmlns="http://www.w3.org/2000/svg" viewBox="0 0 43.18 48.1"><defs><style>.cls-1{fill:#2f2f2f;}</style></defs><title>telephone-3</title><path class="cls-1" d="M7.67,0.35c2.73,3.18,5.4,6.41,8.2,9.53,1.73,1.93,1.46,3.28-.58,4.83-3.77,2.85-4,3.72-1.13,7.45,3.09,4,6.66,7.58,10.1,11.27,1.83,2,3.79,2.26,5.51-.23,2.12-3.08,4-2.5,6,.21,1.84,2.47,3.91,4.77,5.94,7.1,1.55,1.78,1.36,3-.58,4.55-4.05,3.16-8.3,3.33-12.89,1.59-7.68-2.92-13.27-8.51-18.11-14.79A69.51,69.51,0,0,1,2.49,19.26C-0.84,12.24-.38,5.61,6.19.35H7.67Z"/></svg>