<svg id="Layer_1" data-name="Layer 1" xmlns="http://www.w3.org/2000/svg" viewBox="0 0 59.99 40.3"><defs><style>.cls-1{fill:#2f2f2f;}</style></defs><title>email-2</title><path class="cls-1" d="M0.26,6.33l0.28-1L18.49,17l-6.68,6.12L0.26,33.74V6.33Z"/><path class="cls-1" d="M59.74,33.63a2.34,2.34,0,0,1-.43-0.25L41.71,17.26a3.21,3.21,0,0,0-.27-0.19l18-11.81c0,0.94.1,1.76,0.13,2.58,0,1.23.08,2.47,0.13,3.71V33.63Z"/><path class="cls-1" d="M57.84,37.94a6.82,6.82,0,0,1-4.52,2.18c-0.23,0-.46,0-0.7,0H7.38a7.07,7.07,0,0,1-5.3-2.25c0.2-.15.4-0.28,0.57-0.43q9.61-8.8,19.22-17.62a0.56,0.56,0,0,1,.83-0.06,44.91,44.91,0,0,0,4,2.51,7,7,0,0,0,7-.24c1.36-.78,2.65-1.66,4-2.53Z"/><path class="cls-1" d="M2.92,1.65A7.17,7.17,0,0,1,7.54.15H52.42A7.12,7.12,0,0,1,57,1.65L56.49,2Q44.35,10,32.22,17.92a3.67,3.67,0,0,1-4.46,0Q15.65,9.95,3.5,2Z"/></svg>