<?xml version="1.0" encoding="UTF-8"?>
<svg width="30px" height="30px" viewBox="0 0 30 30" version="1.1" xmlns="http://www.w3.org/2000/svg" xmlns:xlink="http://www.w3.org/1999/xlink">
    <!-- Generator: Sketch 61.2 (89653) - https://sketch.com -->
    <title>vk</title>
    <desc>Created with Sketch.</desc>
    <g id="Page-1" stroke="none" stroke-width="1" fill="none" fill-rule="evenodd">
        <g id="web-copy" transform="translate(-1362.000000, -6270.000000)" fill="#FFFFFF" fill-rule="nonzero">
            <g id="vk" transform="translate(1362.000000, 6270.000000)">
                <path d="M25,0 C27.7614237,0 30,2.23857625 30,5 L30,25 C30,27.7614237 27.7614237,30 25,30 L5,30 C2.23857625,30 0,27.7614237 0,25 L0,5 C0,2.23857625 2.23857625,0 5,0 L25,0 Z M25,2 L5,2 C3.40231912,2 2.09633912,3.24891996 2.00509269,4.82372721 L2,5 L2,25 C2,26.5976809 3.24891996,27.9036609 4.82372721,27.9949073 L5,28 L25,28 C26.5976809,28 27.9036609,26.75108 27.9949073,25.1762728 L28,25 L28,5 C28,3.40231912 26.75108,2.09633912 25.1762728,2.00509269 L25,2 Z M22.0561523,9 C22.6084371,9 23.0561523,9.44771525 23.0561523,10 C23.0561523,11.3966521 21.4689787,13.638185 19.4284195,15.2226874 L19.3624038,15.1606872 C19.8650774,15.6197482 20.3679465,16.108354 20.8397641,16.6081187 C21.2585932,17.0517562 21.6337778,17.484323 21.9549559,17.901107 C22.4391761,18.5294661 22.7926449,19.1097502 22.9938059,19.6524287 C23.1857642,20.1702805 22.9215753,20.7456952 22.4037235,20.9376534 C21.8858717,21.1296117 21.310457,20.8654228 21.1184987,20.347571 C20.9991165,20.0255098 20.7426892,19.6045373 20.3707649,19.1219014 C20.093966,18.7627071 19.761426,18.3793071 19.3854729,17.9810852 C19.095658,17.6741038 18.7908648,17.3694934 18.4810209,17.0737255 L18.0137079,16.6375147 C17.8898826,16.5244327 17.7785461,16.4245148 17.6825187,16.3395345 C17.1250437,16.623215 16.5581065,16.837135 16.0002935,16.9584086 L16,20 C16,20.5522847 15.5522847,21 15,21 C10.9612889,21 6,13.5184917 6,10 C6,9.44771525 6.44771525,9 7,9 C7.55228475,9 8,9.44771525 8,10 C8,12.2153733 11.2425606,17.3922573 13.8764063,18.6971856 L14,18.755 L14,10 C14,9.48716416 14.3860402,9.06449284 14.8833789,9.00672773 L15,9 C15.5128358,9 15.9355072,9.38604019 15.9932723,9.88337887 L16,10 L16.0006004,14.9188295 C17.046954,14.6112355 18.1503109,13.8521168 19.1787452,12.7656438 C20.2249364,11.6604118 21.0561523,10.2818497 21.0561523,10 C21.0561523,9.44771525 21.5038676,9 22.0561523,9 Z"></path>
            </g>
        </g>
    </g>
</svg>