<?xml version="1.0" encoding="UTF-8"?>
<svg width="30px" height="30px" viewBox="0 0 30 30" version="1.1" xmlns="http://www.w3.org/2000/svg" xmlns:xlink="http://www.w3.org/1999/xlink">
    <!-- Generator: Sketch 61.2 (89653) - https://sketch.com -->
    <title>ph</title>
    <desc>Created with Sketch.</desc>
    <g id="Page-1" stroke="none" stroke-width="1" fill="none" fill-rule="evenodd">
        <g id="web-copy" transform="translate(-1612.000000, -6270.000000)" fill="#FFFFFF" fill-rule="nonzero">
            <g id="ph" transform="translate(1612.000000, 6270.000000)">
                <path d="M5.73772152,1.73455696 C6.50987342,1.73455696 7.24405063,2.05734177 7.85797468,2.66493671 C8.26936709,3.04468354 8.66810127,3.44974684 9.0478481,3.8421519 C9.23772152,4.04468354 9.44025316,4.24721519 9.6364557,4.44341772 L9.6364557,4.44341772 L11.3643038,6.17126582 C12.6934177,7.50037975 12.6934177,9.22189873 11.3643038,10.5510127 C11.1870886,10.7282278 11.0098734,10.9117722 10.8326582,11.0889873 C10.3643038,11.5636709 9.88329114,12.0573418 9.3643038,12.5320253 C9.75037975,13.3864557 10.2820253,14.2282278 11.0731646,15.2282278 C12.7060759,17.234557 14.4086076,18.7851899 16.2820253,19.9750633 C16.4655696,20.0889873 16.6807595,20.1965823 16.9086076,20.3105063 C17.0668354,20.3927848 17.2313924,20.4750633 17.3959494,20.5636709 L17.3959494,20.5636709 L19.3959494,18.57 C20.0351899,17.9307595 20.7820253,17.5953165 21.5605063,17.5953165 C22.3453165,17.5953165 23.0858228,17.9370886 23.6997468,18.5763291 L23.6997468,18.5763291 L27.1744304,22.0636709 C27.8136709,22.6965823 28.1491139,23.4497468 28.1491139,24.234557 C28.1491139,25.013038 27.82,25.7725316 27.1934177,26.4244304 C26.9212658,26.7092405 26.6427848,26.9813924 26.3706329,27.2408861 C25.9718987,27.626962 25.5921519,27.9877215 25.263038,28.3864557 L25.263038,28.3864557 L25.2377215,28.4181013 C24.2756962,29.4624051 23.0478481,29.9877215 21.5858228,29.9877215 C21.4592405,29.9877215 21.32,29.9813924 21.1870886,29.9750633 C19.0162025,29.8358228 17.0731646,29.0193671 15.6174684,28.3294937 C11.8073418,26.4877215 8.47189873,23.8737975 5.69974684,20.5636709 C3.41493671,17.8168354 1.88329114,15.2535443 0.857974684,12.4877215 C0.440253165,11.3611392 -0.104050633,9.63962025 0.0478481013,7.79151899 C0.149113924,6.64594937 0.611139241,5.65860759 1.42126582,4.84848101 L1.42126582,4.84848101 L3.57316456,2.67759494 L3.57316456,2.67759494 L3.58582278,2.66493671 C4.21873418,2.05734177 4.96556962,1.73455696 5.73772152,1.73455696 Z M5.75037975,3.44341772 C5.42759494,3.44341772 5.09848101,3.60164557 4.78835443,3.89278481 L4.78835443,3.89278481 L2.63012658,6.05101266 C2.10481013,6.57632911 1.82,7.19025316 1.75670886,7.93075949 C1.66177215,9.08898734 1.87696203,10.3168354 2.46556962,11.8927848 C3.42126582,14.4750633 4.8643038,16.8801266 7.02253165,19.4813924 C9.6364557,22.6016456 12.7820253,25.0636709 16.3643038,26.7978481 C17.6744304,27.4244304 19.4212658,28.1586076 21.3010127,28.2788608 C21.3959494,28.2851899 21.4972152,28.2851899 21.5921519,28.2851899 C22.5794937,28.2851899 23.3326582,27.9624051 23.9718987,27.2788608 C24.3643038,26.8168354 24.7820253,26.405443 25.1934177,26.013038 C25.4655696,25.7472152 25.7187342,25.5067089 25.9655696,25.2408861 L25.9655696,25.2408861 L26.072791,25.1225627 C26.6088835,24.4918825 26.5727923,23.8674684 25.9592405,23.2598734 L25.9592405,23.2598734 L22.4718987,19.7725316 C22.4655696,19.7662025 22.4655696,19.7662025 22.4592405,19.7598734 C22.263038,19.5446835 21.9402532,19.2978481 21.5478481,19.2978481 C21.1491139,19.2978481 20.8073418,19.5573418 20.5921519,19.7725316 L20.5921519,19.7725316 L18.4275949,21.9370886 C18.32,22.0446835 17.9908861,22.3737975 17.4655696,22.3737975 C17.2567089,22.3737975 17.0541772,22.3231646 16.8389873,22.2155696 L16.8389873,22.2155696 L16.763038,22.1712658 C16.5794937,22.0573418 16.3643038,21.9497468 16.1364557,21.8358228 C15.8832911,21.7092405 15.6174684,21.5763291 15.3579747,21.4117722 C13.3263291,20.126962 11.484557,18.4497468 9.73772152,16.2978481 L9.73772152,16.2978481 C8.76936709,15.07 8.1364557,14.0446835 7.68708861,12.9560759 C7.68075949,12.9370886 7.67443038,12.9181013 7.66810127,12.8991139 C7.55417722,12.5383544 7.45291139,12.0067089 7.99721519,11.4624051 C8.0035443,11.4497468 8.01620253,11.4434177 8.02886076,11.4307595 C8.57949367,10.9370886 9.08582278,10.4307595 9.61746835,9.8864557 C9.80101266,9.70924051 9.97822785,9.5256962 10.1617722,9.3421519 C10.8326582,8.67126582 10.8326582,8.05101266 10.1617722,7.38012658 L10.1617722,7.38012658 L8.43392405,5.65227848 C8.23139241,5.44341772 8.02886076,5.24088608 7.83265823,5.03835443 C7.44658228,4.63962025 7.07949367,4.26620253 6.69341772,3.90544304 C6.68708861,3.89911392 6.68075949,3.89278481 6.67443038,3.8864557 C6.47189873,3.68392405 6.14911392,3.44341772 5.75037975,3.44341772 Z M16.3961712,5.43896689 L16.5035443,5.44974684 C18.5098734,5.79151899 20.3389873,6.74088608 21.7883544,8.19025316 C23.2377215,9.63962025 24.1870886,11.4687342 24.5288608,13.4750633 C24.6048101,13.9434177 24.2946835,14.3864557 23.8263291,14.4624051 C23.7756962,14.4687342 23.7313924,14.4750633 23.6807595,14.4750633 C23.2693671,14.4750633 22.9086076,14.1839241 22.8389873,13.7662025 C22.5541772,12.1079747 21.7756962,10.6016456 20.5731646,9.39911392 C19.3706329,8.19658228 17.8643038,7.41177215 16.2060759,7.13329114 C15.7377215,7.05734177 15.4339241,6.60797468 15.5162025,6.14594937 C15.598481,5.68392405 16.0351899,5.37379747 16.5035443,5.44974684 Z M16.6316995,0.00101352246 L16.7377215,0.0130379747 C20.041519,0.576329114 23.0478481,2.13329114 25.4402532,4.5256962 C27.8326582,6.91810127 29.3896203,9.92443038 29.9529114,13.2282278 C30.0351899,13.6902532 29.7187342,14.1332911 29.2567089,14.2029114 C29.2060759,14.2092405 29.1617722,14.2155696 29.1111392,14.2155696 C28.6997468,14.2155696 28.3389873,13.9244304 28.2693671,13.5067089 C27.7693671,10.5573418 26.376962,7.86746835 24.2377215,5.72822785 C22.098481,3.59531646 19.4086076,2.19658228 16.4592405,1.69658228 C15.9908861,1.6143038 15.6807595,1.17759494 15.7567089,0.709240506 C15.8389873,0.24721519 16.2756962,-0.0692405063 16.7377215,0.0130379747 Z" id="Combined-Shape"></path>
            </g>
        </g>
    </g>
</svg>