<?xml version="1.0" encoding="UTF-8"?>
<svg width="30px" height="30px" viewBox="0 0 30 30" version="1.1" xmlns="http://www.w3.org/2000/svg" xmlns:xlink="http://www.w3.org/1999/xlink">
    <!-- Generator: Sketch 61.2 (89653) - https://sketch.com -->
    <title>sk</title>
    <desc>Created with Sketch.</desc>
    <g id="Page-1" stroke="none" stroke-width="1" fill="none" fill-rule="evenodd">
        <g id="web-copy" transform="translate(-1462.000000, -6270.000000)" fill="#FFFFFF" fill-rule="nonzero">
            <g id="sk" transform="translate(1462.000000, 6270.000000)">
                <path d="M8.38765087,0 C9.63368353,0 10.8739942,0.281295762 11.9952863,0.81596373 C12.9881757,0.605850234 13.9975446,0.499649062 15.000276,0.499649062 C18.8734144,0.499649062 22.5146955,2.00798033 25.2534956,4.74678041 C27.9920668,7.48558043 29.500398,11.1268616 29.500398,15 C29.500398,16.0045624 29.3941969,17.0139313 29.1843122,18.0052185 C29.7187513,19.1269684 30.0000471,20.367279 30.0000471,21.612854 C30.0000471,26.2374115 26.2376874,30 21.6129011,30 C20.3668684,30 19.1265577,29.7187042 18.0048078,29.1840363 C17.0121473,29.393692 16.0030073,29.5001221 15.000276,29.5001221 C11.1269087,29.5001221 7.48562751,27.9917907 4.74705636,25.2532196 C2.00848521,22.5144196 0.500153881,18.8731384 0.500153881,15 C0.500153881,13.9954376 0.606355053,12.9862976 0.816010815,11.9952393 C0.281342846,10.8732605 4.70845444e-05,9.63294984 4.70845444e-05,8.38737486 C4.70845444e-05,3.76258852 3.7626356,0 8.38765087,0 Z M8.43758561,1.857812 C4.80949134,1.857812 1.85786,4.80944334 1.85786,8.43731041 C1.85786,9.51606193 2.11204468,10.5459755 2.61382654,11.4984297 C2.71172967,11.6844684 2.73921522,11.8995827 2.69128583,12.1042479 C2.46753974,13.0571564 2.35419018,14.0314174 2.35419018,14.9999995 C2.35419018,21.9731548 8.02711939,27.646084 15.0002746,27.646084 C15.9670395,27.646084 16.9413005,27.5327344 17.8964806,27.3089883 C17.9621279,27.2935419 18.0289111,27.2858187 18.095467,27.2858187 C18.236075,27.2858187 18.3757743,27.3198917 18.5020716,27.3864476 C19.4538444,27.8880023 20.4835307,28.142187 21.5629637,28.142187 C25.1908308,28.142187 28.142235,25.1907828 28.142235,21.5629157 C28.142235,20.4839371 27.8880503,19.4542506 27.3864956,18.5020236 C27.2885925,18.315985 27.2611069,18.1008707 27.3092634,17.8962055 C27.5330096,16.9430697 27.6463591,15.9685816 27.6463591,14.9999995 C27.6463591,8.02684425 21.9734299,2.3536879 15.0002746,2.3536879 C14.0335097,2.3536879 13.0590217,2.4672646 12.1036144,2.6910107 C11.8989492,2.73894008 11.6838349,2.71145453 11.4977963,2.61332426 C10.5464778,2.11199668 9.5170186,1.857812 8.43758561,1.857812 Z M15.0000471,6.34714355 C16.7054757,6.34714355 18.3219727,6.80562566 19.5527616,7.6396929 C20.8971578,8.55081956 21.6410322,9.80259333 21.6410322,11.1630249 C21.6410322,11.7036367 21.2026589,12.1419312 20.6621259,12.1419312 C20.1214391,12.1419312 19.6832197,11.7037117 19.6832197,11.1630249 L19.6832197,11.1630249 L19.6770067,11.0197462 C19.5491524,9.54634193 17.4649683,8.30518492 15.0000471,8.30518492 C12.4554621,8.30518492 10.3168745,9.62765863 10.3168745,11.1630249 C10.3168745,12.6985856 12.4554042,14.0210937 15.0000471,14.0210937 L15.0000471,14.0210937 L15.339839,14.0271815 C16.9191887,14.0838863 18.4039471,14.5351152 19.5527616,15.3134142 C20.8971881,16.2245614 21.6410322,17.4763456 21.6410322,18.8369751 C21.6410322,20.1972613 20.8970743,21.449237 19.5527479,22.3603164 C18.3218889,23.194199 16.7053664,23.6526276 15.0000471,23.6526276 C13.2947278,23.6526276 11.6782052,23.194199 10.4473392,22.3603116 C9.10293344,21.4493367 8.35906201,20.1974029 8.35906201,18.8369751 C8.35906201,18.2963633 8.79743527,17.8580688 9.33796826,17.8580688 C9.87865509,17.8580688 10.3168745,18.2962883 10.3168745,18.8369751 L10.3168745,18.8369751 L10.323087,18.9802581 C10.4509327,20.4537045 12.5349803,21.6948151 15.0000471,21.6948151 C17.5444819,21.6948151 19.6832197,20.3722919 19.6832197,18.8369751 C19.6832197,17.3014639 17.5445398,15.9789062 15.0000471,15.9789062 L15.0000471,15.9789062 L14.6601572,15.9728195 C13.0803875,15.916124 11.5957248,15.4649622 10.4473392,14.6865903 C9.10290309,13.7755948 8.35906201,12.5236507 8.35906201,11.1630249 C8.35906201,9.80245166 9.10284995,8.55071991 10.4473355,7.63969086 C11.6781215,6.80562566 13.2946185,6.34714355 15.0000471,6.34714355 Z" id="Combined-Shape"></path>
            </g>
        </g>
    </g>
</svg>