<?xml version="1.0" encoding="UTF-8"?>
<svg width="30px" height="24px" viewBox="0 0 30 24" version="1.1" xmlns="http://www.w3.org/2000/svg" xmlns:xlink="http://www.w3.org/1999/xlink">
    <!-- Generator: Sketch 61.2 (89653) - https://sketch.com -->
    <title>em</title>
    <desc>Created with Sketch.</desc>
    <g id="Page-1" stroke="none" stroke-width="1" fill="none" fill-rule="evenodd">
        <g id="web-copy" transform="translate(-1562.000000, -6273.000000)" fill="#FFFFFF" fill-rule="nonzero">
            <g id="em" transform="translate(1562.000000, 6273.000000)">
                <path d="M26.3376631,0.0464876033 C28.3612497,0.0464876033 30.0061898,1.70989163 30,3.74849957 L30,3.74849957 L30,19.350729 C30,21.389337 28.3550424,23.0464876 26.3314558,23.0464876 L26.3314558,23.0464876 L3.66852672,23.0464876 C1.64494007,23.0464876 1.68043357e-12,21.389337 1.68043357e-12,19.350729 L1.68043357e-12,19.350729 L1.68043357e-12,3.74224617 C1.68043357e-12,1.70363823 1.64494007,0.0464876033 3.66852672,0.0464876033 L3.66852672,0.0464876033 Z M26.2203074,1.846488 L3.77354448,1.846488 C2.68532837,1.846488 1.8,2.73702036 1.8,3.83163304 L1.8,3.83163304 L1.8,19.261343 C1.8,20.3559556 2.68532837,21.246488 3.77354448,21.246488 L3.77354448,21.246488 L26.2264555,21.246488 C27.3146716,21.246488 28.2,20.3559556 28.2,19.261343 L28.2,19.261343 L28.1938519,19.261343 L28.1938519,3.83163304 C28.1938519,2.73702036 27.3085235,1.846488 26.2203074,1.846488 L26.2203074,1.846488 Z M25.9158518,5.10806861 C26.2176191,5.51896261 26.1591722,6.08385549 25.7982839,6.42545791 L25.7017944,6.50598829 L18.78,11.5884876 L25.7181798,16.9063055 C26.1565252,17.2422695 26.2395218,17.8699712 25.9035578,18.3083166 C25.5934373,18.7129431 25.0347354,18.8147872 24.6058458,18.5638166 L24.5015468,18.4936946 L17.102,12.8214876 L15.6468628,13.8904948 C15.5059716,13.9939676 15.3447319,14.0560513 15.1794224,14.0767458 L15.0549316,14.084506 C14.8886048,14.084506 14.7222779,14.0431169 14.5722299,13.9603386 L14.4630005,13.8904945 L13.041,12.8464876 L5.60488163,18.4963155 C5.198919,18.8046849 4.6331552,18.7553765 4.2857641,18.400057 L4.2036846,18.3048817 C3.89531516,17.8989191 3.94462357,17.3331553 4.29994314,16.9857642 L4.39511837,16.9036847 L11.361,11.6124876 L4.40806885,6.50598829 C3.96293367,6.17907374 3.86709692,5.55320378 4.19401147,5.10806861 C4.49577875,4.6971746 5.05227726,4.58390765 5.48621768,4.82604044 L5.59193115,4.89401123 L13.6239687,10.7928713 L15.054,11.8439998 L24.5179321,4.89401123 C24.9630673,4.56709668 25.5889373,4.66293343 25.9158518,5.10806861 Z" id="Combined-Shape"></path>
            </g>
        </g>
    </g>
</svg>