<svg id="Layer_1" data-name="Layer 1" xmlns="http://www.w3.org/2000/svg" viewBox="0 0 59.99 60.62"><defs><style>.cls-1,.cls-2{fill:#2f2f2f;}.cls-2{font-size:21.17px;font-family:Muller;font-weight:700;}</style></defs><title>time-1</title><path class="cls-1" d="M8.58,12.42c2.73,3.18,5.4,6.41,8.2,9.53,1.73,1.93,1.46,3.28-.58,4.83-3.77,2.85-4,3.72-1.13,7.45,3.09,4,6.66,7.58,10.1,11.27,1.83,2,3.79,2.26,5.51-.23,2.12-3.08,4-2.5,6,.21,1.84,2.47,3.91,4.77,5.94,7.1,1.55,1.78,1.36,3-.58,4.55-4.05,3.16-8.3,3.33-12.89,1.59C21.44,55.79,15.86,50.2,11,43.92A69.51,69.51,0,0,1,3.4,31.33c-3.33-7-2.87-13.65,3.7-18.91H8.58Z"/><text class="cls-2" transform="translate(22.5 33.54)">24</text><path class="cls-1" d="M29.49,0.81A29,29,0,0,0,9.64,8.64l1.94,2.3a26.12,26.12,0,1,1,33.73,39.8l2,2.29A29.13,29.13,0,0,0,29.49.81Z"/></svg>